PathFileType	4	(X/Y/Z)	C:\Git\1_current_projects\powerlifing_model\simulations\Athlete_03\25_03_31\Walking_01\markers_experimental.trc
DataRate	CameraRate	NumFrames	NumMarkers	Units	OrigDataRate	OrigDataStartFrame	OrigNumFrames
200.000000	200.000000	4	53	mm	200.000000	149	239
Frame#	Time	GLAB			RFHD			LFHD			C7			T6			SPINMOL			SPINM2			SPINM3			T12			BELTOL			BELT2			BELT3			SACROL			SACR2			SACR3			LTHOL			LTH2			LTH3			LSHAOL			LSHA2			LSHA3			LHEE			LTOE			LM5			RTHOL			RTH2			RTH3			RSHAOL			RSHA2			RSHA3			RHEE			RTOE			RM5			STRN			XIPH			LACR			LUAOL			LUA2			LUA3			LLAOL			LLA2			LLA3			LWRR			LWRU			RACR			RUAOL			RUA2			RUA3			RLAOL			RLA2			RLA3			RWRR			RWRU			
		X1	Y1	Z1	X2	Y2	Z2	X3	Y3	Z3	X4	Y4	Z4	X5	Y5	Z5	X6	Y6	Z6	X7	Y7	Z7	X8	Y8	Z8	X9	Y9	Z9	X10	Y10	Z10	X11	Y11	Z11	X12	Y12	Z12	X13	Y13	Z13	X14	Y14	Z14	X15	Y15	Z15	X16	Y16	Z16	X17	Y17	Z17	X18	Y18	Z18	X19	Y19	Z19	X20	Y20	Z20	X21	Y21	Z21	X22	Y22	Z22	X23	Y23	Z23	X24	Y24	Z24	X25	Y25	Z25	X26	Y26	Z26	X27	Y27	Z27	X28	Y28	Z28	X29	Y29	Z29	X30	Y30	Z30	X31	Y31	Z31	X32	Y32	Z32	X33	Y33	Z33	X34	Y34	Z34	X35	Y35	Z35	X36	Y36	Z36	X37	Y37	Z37	X38	Y38	Z38	X39	Y39	Z39	X40	Y40	Z40	X41	Y41	Z41	X42	Y42	Z42	X43	Y43	Z43	X44	Y44	Z44	X45	Y45	Z45	X46	Y46	Z46	X47	Y47	Z47	X48	Y48	Z48	X49	Y49	Z49	X50	Y50	Z50	X51	Y51	Z51	X52	Y52	Z52	X53	Y53	Z53	

150	0.745	180.7388000488282	1589.308837890625	-501.2632141113282	242.8882446289063	1617.591918945313	-449.2436828613282	105.1858901977539	1606.225708007813	-458.8698730468751	178.1377868652344	1424.705078125	-278.6981506347657	183.0627593994141	1256.717895507813	-219.9793853759766	163.7414245605469	1215.722778320313	-211.9805755615235	213.455307006836	1210.247680664063	-205.7572174072266	182.2583770751953	1152.249145507813	-215.8855285644532	186.8575134277344	1086.106201171875	-240.6393585205079	174.3489074707032	1049.063720703125	-203.4825286865235	224.8717651367188	1047.788208007813	-202.6022491455079	196.4696197509766	987.1791992187502	-199.0043029785157	169.0109405517578	938.1275024414065	-216.983627319336	220.1692504882813	934.1145629882815	-216.4631042480469	190.186752319336	876.2974853515627	-203.8516540527344	15.94227981567383	658.7155761718751	-392.3975830078126	37.94115829467774	590.0027465820314	-359.8678588867188	29.79658508300782	601.0819702148439	-407.7866821289064	33.84902572631837	315.2661437988282	-453.3639526367189	44.66292953491212	248.8592376708985	-410.4800109863282	43.5614128112793	254.2469482421876	-460.3526611328126	138.2647552490235	65.4578323364258	-402.5949096679689	129.0861053466797	45.54913330078126	-622.4280395507814	30.87969970703126	32.03014373779298	-570.3654174804689	390.7208251953126	666.4321899414064	-284.6015014648438	416.5059509277345	611.9228515625001	-336.6553039550782	389.6450805664064	605.6990356445314	-294.9862670898438	401.0175170898439	407.8095703125001	-184.9188842773438	396.3291931152345	335.3024597167969	-153.6678924560547	378.4270629882813	377.8950195312501	-135.1864318847657	257.1451721191407	285.8141174316407	17.46356773376465	282.4689636230469	77.8960647583008	-12.19210910797119	374.1608581542969	127.2743835449219	30.09192276000977	184.4192352294922	1322.79931640625	-448.639617919922	192.6360778808594	1178.514770507813	-464.2219238281251	5.868554115295411	1377.924682617188	-360.4161376953126	-89.09056854248048	1218.66259765625	-342.4762573242188	-104.962631225586	1157.655883789063	-322.9992370605469	-84.59495544433595	1158.770385742188	-369.9049072265626	-128.8717346191407	956.0424804687502	-334.0390930175782	-110.6361312866211	893.753845214844	-288.5468750000001	-129.6570892333985	894.3068847656252	-334.5466308593751	-135.4131927490235	791.3917236328127	-344.9003601074219	-69.76273345947267	786.0051269531252	-389.784637451172	349.5658569335938	1386.5166015625	-363.2323303222657	453.8572082519532	1243.761962890625	-359.1509094238282	463.2390136718751	1185.12744140625	-388.6451721191407	479.5257568359376	1185.67431640625	-340.0095825195313	509.270233154297	972.2646484375002	-424.2141723632814	525.4362792968751	944.9793090820315	-497.8744201660157	506.4297485351564	920.1304931640627	-458.4338684082032	507.9306030273439	860.0598754882815	-527.3554077148439	433.9930419921876	867.9139404296877	-561.8002319335939	
151	0.75	179.8927764892578	1590.376708984375	-507.9350891113282	242.0241241455079	1618.711669921875	-455.9197998046876	104.3228073120117	1607.326538085938	-465.5808410644532	177.2855072021485	1425.849609375	-285.2924499511719	182.0344848632813	1257.794189453125	-226.6212158203126	162.675521850586	1216.80322265625	-218.6413879394532	212.3825988769532	1211.292602539063	-212.399642944336	181.1622619628907	1153.322998046875	-222.6026153564454	185.7816467285157	1087.216186523438	-247.418930053711	173.0316162109375	1049.946899414063	-210.1031494140626	223.5546264648438	1048.6708984375	-209.1484985351563	195.1462860107422	988.0582275390627	-205.6470794677735	168.01171875	939.2971191406252	-223.6660919189454	219.1394653320313	935.138122558594	-223.3333282470704	189.0740203857422	877.4323730468752	-210.5433807373047	15.27177238464356	659.4201660156251	-396.9723510742189	37.14694976806641	591.0399780273439	-363.6366271972657	29.13396453857423	601.6782226562501	-411.6176147460939	33.79431915283204	315.2876586914063	-454.5809936523439	44.77820587158204	249.1644592285157	-411.3172912597657	43.46622848510743	254.2321319580079	-461.2222595214845	138.4375457763672	65.56745910644533	-402.6988830566407	129.1621704101563	45.46445465087891	-622.4732666015626	30.85423278808594	32.09636688232423	-570.3454589843751	390.1778564453126	666.5548095703126	-294.6416320800782	416.3374938964845	612.9238891601564	-347.4729003906251	389.3441772460939	605.9500122070314	-306.0217285156251	400.2363281250001	409.7035522460939	-198.4107513427735	395.5291748046876	337.4122924804688	-166.6481628417969	377.3418579101563	380.0638122558594	-148.6295166015625	254.8820800781251	288.7120056152344	4.408467292785645	282.2071838378907	80.57197570800783	-25.37748908996583	372.8913574218751	130.9857482910157	17.63899230957032	183.7012939453125	1324.01025390625	-455.2652282714845	191.8362579345703	1179.744262695313	-470.919158935547	5.072813034057618	1379.173828125	-367.2082824707032	-90.06487274169923	1219.946166992188	-350.0688781738282	-106.0277252197266	1158.894165039063	-330.8885803222657	-85.49624633789064	1160.167602539063	-377.7260131835938	-129.9393768310547	957.1211547851565	-343.3950805664063	-111.8436889648438	894.4169921875002	-298.4205627441407	-130.5778961181641	895.3831787109377	-344.5259094238282	-136.0170288085938	792.5299072265627	-355.9014282226563	-70.19831848144533	787.8292236328127	-400.7221679687501	348.8639831542969	1387.5888671875	-369.6044006347657	453.0486145019532	1244.730590820313	-365.1048278808594	462.4208068847657	1186.029541015625	-394.4357910156251	478.7886352539064	1186.715087890625	-345.8209838867188	508.6853332519532	972.6009521484377	-427.902313232422	525.2145996093751	944.2407836914065	-501.1184387207032	506.170867919922	919.9205322265627	-461.3394470214845	508.172332763672	858.8818969726565	-529.3607788085939	434.155487060547	865.6499633789065	-563.8826293945314	
152	0.755	179.0924682617188	1591.450927734375	-514.5817871093751	241.2110290527344	1619.831298828125	-462.571502685547	103.5087356567383	1608.438354492188	-472.2626342773439	176.4725646972657	1427.00244140625	-291.8624572753907	181.0280456542969	1258.880493164063	-233.2303924560547	161.6305847167969	1217.894409179688	-225.2695465087891	211.3302764892579	1212.346801757813	-219.0074157714844	180.0854797363282	1154.406860351563	-229.2846679687501	184.7253723144532	1088.338500976563	-254.160385131836	171.6988525390625	1050.906616210938	-216.7285614013672	222.2218322753907	1049.624389648438	-215.6874542236329	193.7992401123047	989.0141601562502	-212.2608337402344	167.0814361572266	940.4932861328127	-230.3059234619141	218.1868896484376	936.2164306640627	-230.1561279296876	188.0594787597657	878.6042480468752	-217.2010498046876	14.6202039718628	660.1279296875001	-401.4516601562501	36.33642196655274	592.0930175781251	-367.2823486328126	28.45972061157227	602.2844238281251	-415.3358459472657	33.6989860534668	315.3046264648438	-455.7587280273439	44.80696487426759	249.4507446289063	-412.129852294922	43.34051132202149	254.2184600830079	-462.064910888672	138.5932312011719	65.67367553710939	-402.786590576172	129.2096710205078	45.40554809570313	-622.5077514648439	30.81734466552735	32.14255142211915	-570.3227539062501	389.623016357422	666.7878417968751	-304.6110534667969	416.1726989746095	614.0632324218751	-358.1918640136719	389.0245361328126	606.3385009765626	-316.9874877929688	399.3284301757814	411.6538696289064	-211.8546905517579	394.6432495117189	339.5577392578126	-179.6398468017578	376.1472778320313	382.2327575683594	-162.0535125732422	252.6244201660157	291.2112731933594	-8.615271568298342	281.8154602050782	83.10453033447267	-39.32710647583009	371.6074829101563	134.2843475341797	4.437860965728761	183.0176849365235	1325.220703125	-461.8591918945314	191.061996459961	1180.973388671875	-477.5800781250001	4.312356472015382	1380.433715820313	-373.9564514160157	-91.0076141357422	1221.247924804688	-357.6218261718751	-107.0642929077149	1160.151489257813	-338.7468872070313	-86.37645721435548	1161.589111328125	-385.519500732422	-130.9902038574219	958.2332763671877	-352.7770385742188	-113.0408554077149	895.1080322265627	-308.3348693847657	-131.4813995361328	896.5000000000002	-354.5432128906251	-136.5994720458985	793.7191162109377	-366.9600830078126	-70.62409973144533	789.7202758789065	-411.7192993164064	348.2042846679688	1388.644165039063	-375.9359436035157	452.2681274414064	1245.671997070313	-371.0159606933594	461.6314392089845	1186.912231445313	-400.1941223144532	478.0698242187501	1187.723388671875	-351.5968017578126	508.1428222656251	972.970642089844	-431.5872192382814	525.0143432617189	943.552429199219	-504.3506164550782	505.9566040039064	919.7564697265627	-464.2326660156251	508.4571533203126	857.7647094726565	-531.3345336914064	434.3529357910157	863.4258422851565	-565.8775634765626	
153	0.76	178.3374633789063	1592.528198242188	-521.2045288085939	240.4490966796876	1620.947631835938	-469.1999816894532	102.7434463500977	1609.55810546875	-478.916229248047	175.6980438232422	1428.159912109375	-298.4084472656251	180.0443420410157	1259.97265625	-239.8089599609376	160.6073455810547	1218.992553710938	-231.8680419921876	210.2990264892579	1213.405883789063	-225.5836181640626	179.028076171875	1155.496948242188	-235.9349975585938	183.6860961914063	1089.468994140625	-260.8665466308594	170.3586730957032	1051.9443359375	-223.3632965087891	220.8812866210938	1050.649658203125	-222.2250976562501	192.4358062744141	990.048278808594	-218.8508911132813	166.2206115722657	941.7106933593752	-236.9057922363282	217.3121337890626	937.346862792969	-236.9346313476563	187.1475677490235	879.8081665039065	-223.8299865722657	13.99531364440918	660.8340454101564	-405.834930419922	35.53357696533204	593.1620483398439	-370.8064270019532	27.78612899780274	602.8956909179689	-418.9417419433595	33.56806182861329	315.3171997070313	-456.9134521484376	44.75300598144532	249.7183990478516	-412.9321289062501	43.1915397644043	254.2057647705079	-462.895721435547	138.7330474853516	65.77860260009767	-402.8598632812501	129.2328796386719	45.36674499511719	-622.5330200195314	30.77068901062012	32.17049026489259	-570.2977294921876	389.060028076172	667.1208496093751	-314.5168762207032	416.0053710937501	615.3289794921876	-368.8224792480469	388.6887817382814	606.8543090820314	-327.8869628906251	398.2898864746095	413.6472167968751	-225.2460327148438	393.6812744140626	341.7247314453126	-192.6355438232422	374.8426818847657	384.3862915039064	-175.4527587890625	250.3907012939454	293.3005371093751	-21.6190242767334	281.2911987304688	85.46203613281251	-54.00043869018556	370.3071899414063	137.1375427246094	-9.459452629089357	182.3662109375	1326.429565429688	-468.4227600097657	190.3120269775391	1182.200439453125	-484.206268310547	3.586408853530885	1381.703491210938	-380.6590270996094	-91.91970825195314	1222.566284179688	-365.1335754394532	-108.0713653564453	1161.424682617188	-346.5735473632813	-87.23497009277345	1163.033569335938	-393.2844543457032	-132.0216979980469	959.3799438476565	-362.1833190917969	-114.2245178222657	895.829284667969	-318.2875976562501	-132.3655853271485	897.6592407226565	-364.5955505371094	-137.1600799560547	794.9625244140627	-378.0717468261719	-71.04004669189455	791.6799926757815	-422.768768310547	347.5834350585938	1389.684814453125	-382.2310791015626	451.515350341797	1246.588623046875	-376.8861694335938	460.8694458007814	1187.7734375	-405.9172363281251	477.3671875000001	1188.701538085938	-357.3330993652344	507.6401367187501	973.3753051757815	-435.2663574218751	524.8349609375001	942.916198730469	-507.5683593750001	505.7843017578126	919.6406250000002	-467.1122436523439	508.7834777832032	856.7109985351565	-533.2769775390626	434.5867614746095	861.2484130859377	-567.7878417968751	
